<svg width="300" height="150" viewBox="0 0 300 150" fill="none" xmlns="http://www.w3.org/2000/svg">
<g clip-path="url(#clip0_102_15)">
<rect width="300" height="150" fill="white"/>
<rect width="300" height="150" rx="10" fill="white"/>
<path d="M117.562 64.7891V62.9375H104.906V64.7891H110.18V80H112.289V64.7891H117.562ZM128.801 80H131.062V79.8125C130.922 79.4609 130.812 79.0508 130.734 78.582C130.656 78.1055 130.617 77.6562 130.617 77.2344V71.3398C130.617 70.6289 130.488 70.0078 130.23 69.4766C129.973 68.9453 129.621 68.5 129.176 68.1406C128.723 67.7891 128.188 67.5273 127.57 67.3555C126.953 67.1758 126.285 67.0859 125.566 67.0859C124.777 67.0859 124.07 67.1953 123.445 67.4141C122.828 67.6328 122.305 67.918 121.875 68.2695C121.438 68.6289 121.102 69.0312 120.867 69.4766C120.641 69.9219 120.523 70.375 120.516 70.8359H122.695C122.695 70.5703 122.758 70.3164 122.883 70.0742C123.016 69.8242 123.199 69.6094 123.434 69.4297C123.668 69.25 123.953 69.1055 124.289 68.9961C124.633 68.8867 125.02 68.832 125.449 68.832C125.91 68.832 126.324 68.8906 126.691 69.0078C127.066 69.125 127.383 69.2891 127.641 69.5C127.898 69.7188 128.098 69.9805 128.238 70.2852C128.379 70.5898 128.449 70.9336 128.449 71.3164V72.3125H126.082C125.199 72.3125 124.398 72.3984 123.68 72.5703C122.969 72.7422 122.359 73 121.852 73.3438C121.344 73.6953 120.949 74.1328 120.668 74.6562C120.395 75.1797 120.258 75.7891 120.258 76.4844C120.258 77.0156 120.359 77.5117 120.562 77.9727C120.773 78.4258 121.07 78.8164 121.453 79.1445C121.828 79.4805 122.285 79.7461 122.824 79.9414C123.371 80.1367 123.98 80.2344 124.652 80.2344C125.066 80.2344 125.457 80.1914 125.824 80.1055C126.191 80.0195 126.539 79.9023 126.867 79.7539C127.188 79.6055 127.48 79.4336 127.746 79.2383C128.02 79.043 128.266 78.8359 128.484 78.6172C128.508 78.8828 128.543 79.1406 128.59 79.3906C128.645 79.6328 128.715 79.8359 128.801 80ZM124.969 78.3477C124.547 78.3477 124.176 78.293 123.855 78.1836C123.535 78.0742 123.27 77.9219 123.059 77.7266C122.848 77.5391 122.688 77.3125 122.578 77.0469C122.477 76.7812 122.426 76.4922 122.426 76.1797C122.426 75.8516 122.484 75.5586 122.602 75.3008C122.727 75.043 122.906 74.8203 123.141 74.6328C123.469 74.3672 123.91 74.1719 124.465 74.0469C125.027 73.9141 125.684 73.8477 126.434 73.8477H128.449V76.4141C128.324 76.6641 128.152 76.9062 127.934 77.1406C127.715 77.3672 127.457 77.5703 127.16 77.75C126.855 77.9297 126.52 78.0742 126.152 78.1836C125.785 78.293 125.391 78.3477 124.969 78.3477ZM143.309 76.6367C143.309 76.8398 143.27 77.0312 143.191 77.2109C143.113 77.3906 143 77.5547 142.852 77.7031C142.609 77.9453 142.273 78.1367 141.844 78.2773C141.414 78.4102 140.91 78.4766 140.332 78.4766C139.965 78.4766 139.594 78.4375 139.219 78.3594C138.844 78.2812 138.504 78.1484 138.199 77.9609C137.887 77.7734 137.625 77.5273 137.414 77.2227C137.211 76.918 137.094 76.543 137.062 76.0977H134.895C134.895 76.6367 135.016 77.1562 135.258 77.6562C135.508 78.1562 135.867 78.5938 136.336 78.9688C136.797 79.3516 137.363 79.6602 138.035 79.8945C138.707 80.1211 139.473 80.2344 140.332 80.2344C141.082 80.2344 141.773 80.1445 142.406 79.9648C143.039 79.7852 143.582 79.5312 144.035 79.2031C144.488 78.875 144.84 78.4805 145.09 78.0195C145.348 77.5586 145.477 77.0469 145.477 76.4844C145.477 75.9609 145.363 75.5 145.137 75.1016C144.918 74.7031 144.598 74.3516 144.176 74.0469C143.754 73.75 143.234 73.4961 142.617 73.2852C142 73.0664 141.301 72.875 140.52 72.7109C139.926 72.5938 139.434 72.4727 139.043 72.3477C138.66 72.2227 138.355 72.082 138.129 71.9258C137.895 71.7695 137.73 71.5938 137.637 71.3984C137.543 71.2031 137.496 70.9805 137.496 70.7305C137.496 70.4883 137.555 70.2539 137.672 70.0273C137.789 69.8008 137.965 69.6016 138.199 69.4297C138.426 69.2578 138.711 69.1211 139.055 69.0195C139.406 68.918 139.812 68.8672 140.273 68.8672C140.719 68.8672 141.117 68.9297 141.469 69.0547C141.828 69.1797 142.133 69.3438 142.383 69.5469C142.633 69.75 142.828 69.9844 142.969 70.25C143.109 70.5078 143.18 70.7734 143.18 71.0469H145.348C145.348 70.4922 145.227 69.9766 144.984 69.5C144.75 69.0156 144.414 68.5938 143.977 68.2344C143.539 67.875 143.008 67.5938 142.383 67.3906C141.758 67.1875 141.055 67.0859 140.273 67.0859C139.547 67.0859 138.879 67.1836 138.27 67.3789C137.668 67.5742 137.148 67.8398 136.711 68.1758C136.273 68.5117 135.934 68.9062 135.691 69.3594C135.449 69.8047 135.328 70.2852 135.328 70.8008C135.328 71.3242 135.445 71.7852 135.68 72.1836C135.914 72.5742 136.246 72.9141 136.676 73.2031C137.098 73.5 137.605 73.7539 138.199 73.9648C138.801 74.1758 139.465 74.3555 140.191 74.5039C140.785 74.6211 141.281 74.7539 141.68 74.9023C142.078 75.043 142.398 75.1992 142.641 75.3711C142.883 75.543 143.055 75.7344 143.156 75.9453C143.258 76.1484 143.309 76.3789 143.309 76.6367ZM153.094 74.082L157.746 80H160.5L154.582 72.6055L159.715 67.3203H157.078L152.918 71.4922L151.5 73.0156V62H149.32V80H151.5V75.6172L153.094 74.082ZM189.633 64.7891V62.9375H176.977V64.7891H182.25V80H184.359V64.7891H189.633ZM200.848 67.0859C199.926 67.0859 199.102 67.2891 198.375 67.6953C197.656 68.0938 197.039 68.6406 196.523 69.3359L196.512 69.0195L196.418 67.3203H194.355V80H196.535V71.8672C196.676 71.4766 196.852 71.125 197.062 70.8125C197.281 70.4922 197.535 70.2227 197.824 70.0039C198.145 69.7539 198.52 69.5664 198.949 69.4414C199.379 69.3086 199.859 69.2422 200.391 69.2422C200.805 69.2422 201.199 69.2656 201.574 69.3125C201.957 69.3516 202.359 69.418 202.781 69.5117L203.074 67.3906C202.855 67.2969 202.527 67.2227 202.09 67.168C201.66 67.1133 201.246 67.0859 200.848 67.0859ZM215.285 80H217.547V79.8125C217.406 79.4609 217.297 79.0508 217.219 78.582C217.141 78.1055 217.102 77.6562 217.102 77.2344V71.3398C217.102 70.6289 216.973 70.0078 216.715 69.4766C216.457 68.9453 216.105 68.5 215.66 68.1406C215.207 67.7891 214.672 67.5273 214.055 67.3555C213.438 67.1758 212.77 67.0859 212.051 67.0859C211.262 67.0859 210.555 67.1953 209.93 67.4141C209.312 67.6328 208.789 67.918 208.359 68.2695C207.922 68.6289 207.586 69.0312 207.352 69.4766C207.125 69.9219 207.008 70.375 207 70.8359H209.18C209.18 70.5703 209.242 70.3164 209.367 70.0742C209.5 69.8242 209.684 69.6094 209.918 69.4297C210.152 69.25 210.438 69.1055 210.773 68.9961C211.117 68.8867 211.504 68.832 211.934 68.832C212.395 68.832 212.809 68.8906 213.176 69.0078C213.551 69.125 213.867 69.2891 214.125 69.5C214.383 69.7188 214.582 69.9805 214.723 70.2852C214.863 70.5898 214.934 70.9336 214.934 71.3164V72.3125H212.566C211.684 72.3125 210.883 72.3984 210.164 72.5703C209.453 72.7422 208.844 73 208.336 73.3438C207.828 73.6953 207.434 74.1328 207.152 74.6562C206.879 75.1797 206.742 75.7891 206.742 76.4844C206.742 77.0156 206.844 77.5117 207.047 77.9727C207.258 78.4258 207.555 78.8164 207.938 79.1445C208.312 79.4805 208.77 79.7461 209.309 79.9414C209.855 80.1367 210.465 80.2344 211.137 80.2344C211.551 80.2344 211.941 80.1914 212.309 80.1055C212.676 80.0195 213.023 79.9023 213.352 79.7539C213.672 79.6055 213.965 79.4336 214.23 79.2383C214.504 79.043 214.75 78.8359 214.969 78.6172C214.992 78.8828 215.027 79.1406 215.074 79.3906C215.129 79.6328 215.199 79.8359 215.285 80ZM211.453 78.3477C211.031 78.3477 210.66 78.293 210.34 78.1836C210.02 78.0742 209.754 77.9219 209.543 77.7266C209.332 77.5391 209.172 77.3125 209.062 77.0469C208.961 76.7812 208.91 76.4922 208.91 76.1797C208.91 75.8516 208.969 75.5586 209.086 75.3008C209.211 75.043 209.391 74.8203 209.625 74.6328C209.953 74.3672 210.395 74.1719 210.949 74.0469C211.512 73.9141 212.168 73.8477 212.918 73.8477H214.934V76.4141C214.809 76.6641 214.637 76.9062 214.418 77.1406C214.199 77.3672 213.941 77.5703 213.645 77.75C213.34 77.9297 213.004 78.0742 212.637 78.1836C212.27 78.293 211.875 78.3477 211.453 78.3477ZM226.77 78.4766C226.09 78.4766 225.52 78.3438 225.059 78.0781C224.605 77.8047 224.242 77.4492 223.969 77.0117C223.688 76.582 223.484 76.0977 223.359 75.5586C223.242 75.0117 223.184 74.4609 223.184 73.9062V73.4141C223.184 72.8672 223.242 72.3242 223.359 71.7852C223.484 71.2461 223.688 70.7578 223.969 70.3203C224.25 69.8906 224.617 69.543 225.07 69.2773C225.531 69.0039 226.098 68.8672 226.77 68.8672C227.207 68.8672 227.613 68.9414 227.988 69.0898C228.371 69.2383 228.699 69.4414 228.973 69.6992C229.246 69.957 229.461 70.2578 229.617 70.6016C229.781 70.9375 229.867 71.2969 229.875 71.6797H231.926C231.926 71.0391 231.797 70.4375 231.539 69.875C231.281 69.3125 230.926 68.8242 230.473 68.4102C230.012 68.0039 229.465 67.6836 228.832 67.4492C228.207 67.207 227.52 67.0859 226.77 67.0859C225.809 67.0859 224.969 67.2578 224.25 67.6016C223.531 67.9453 222.934 68.4062 222.457 68.9844C221.973 69.5703 221.609 70.2461 221.367 71.0117C221.125 71.7773 221.004 72.5781 221.004 73.4141V73.9062C221.004 74.75 221.125 75.5547 221.367 76.3203C221.609 77.0781 221.973 77.7461 222.457 78.3242C222.934 78.9102 223.531 79.375 224.25 79.7188C224.969 80.0625 225.809 80.2344 226.77 80.2344C227.441 80.2344 228.086 80.1211 228.703 79.8945C229.32 79.6602 229.867 79.3477 230.344 78.957C230.82 78.5742 231.199 78.1289 231.48 77.6211C231.77 77.1055 231.918 76.5664 231.926 76.0039H229.875C229.867 76.3555 229.773 76.6836 229.594 76.9883C229.422 77.2852 229.191 77.543 228.902 77.7617C228.613 77.9883 228.281 78.1641 227.906 78.2891C227.539 78.4141 227.16 78.4766 226.77 78.4766ZM239.578 74.082L244.23 80H246.984L241.066 72.6055L246.199 67.3203H243.562L239.402 71.4922L237.984 73.0156V62H235.805V80H237.984V75.6172L239.578 74.082ZM255.797 80.2344C257.031 80.2344 258.066 79.9883 258.902 79.4961C259.746 78.9961 260.379 78.4258 260.801 77.7852L259.477 76.7539C259.078 77.2695 258.578 77.6836 257.977 77.9961C257.375 78.3086 256.688 78.4648 255.914 78.4648C255.328 78.4648 254.793 78.3555 254.309 78.1367C253.824 77.918 253.41 77.6172 253.066 77.2344C252.73 76.875 252.465 76.4609 252.27 75.9922C252.082 75.5234 251.961 74.9805 251.906 74.3633V74.2812H260.965V73.3086C260.965 72.4258 260.852 71.6055 260.625 70.8477C260.406 70.0898 260.07 69.4297 259.617 68.8672C259.164 68.3125 258.594 67.8789 257.906 67.5664C257.227 67.2461 256.43 67.0859 255.516 67.0859C254.789 67.0859 254.078 67.2344 253.383 67.5312C252.695 67.8281 252.082 68.2539 251.543 68.8086C250.996 69.3711 250.559 70.0586 250.23 70.8711C249.902 71.6758 249.738 72.5898 249.738 73.6133V74.1055C249.738 74.9883 249.887 75.8047 250.184 76.5547C250.48 77.3047 250.895 77.9531 251.426 78.5C251.957 79.0469 252.594 79.4727 253.336 79.7773C254.086 80.082 254.906 80.2344 255.797 80.2344ZM255.516 68.8672C256.07 68.8672 256.547 68.9688 256.945 69.1719C257.352 69.375 257.688 69.6406 257.953 69.9688C258.219 70.2969 258.426 70.6875 258.574 71.1406C258.723 71.5859 258.797 72.0039 258.797 72.3945V72.5H251.977C252.062 71.9141 252.211 71.3984 252.422 70.9531C252.641 70.5 252.906 70.1172 253.219 69.8047C253.531 69.5 253.883 69.2695 254.273 69.1133C254.664 68.9492 255.078 68.8672 255.516 68.8672ZM272.918 67.0859C271.996 67.0859 271.172 67.2891 270.445 67.6953C269.727 68.0938 269.109 68.6406 268.594 69.3359L268.582 69.0195L268.488 67.3203H266.426V80H268.605V71.8672C268.746 71.4766 268.922 71.125 269.133 70.8125C269.352 70.4922 269.605 70.2227 269.895 70.0039C270.215 69.7539 270.59 69.5664 271.02 69.4414C271.449 69.3086 271.93 69.2422 272.461 69.2422C272.875 69.2422 273.27 69.2656 273.645 69.3125C274.027 69.3516 274.43 69.418 274.852 69.5117L275.145 67.3906C274.926 67.2969 274.598 67.2227 274.16 67.168C273.73 67.1133 273.316 67.0859 272.918 67.0859Z" fill="#808080"/>
</g>
<circle cx="57" cy="75" r="35" fill="#26CBAD"/>
<path d="M57 93.2C65.5052 93.2 72.4 86.3052 72.4 77.8C72.4 69.2948 65.5052 62.4 57 62.4C48.4948 62.4 41.6 69.2948 41.6 77.8C41.6 86.3052 48.4948 93.2 57 93.2Z" stroke="white" stroke-width="2" stroke-miterlimit="10"/>
<path d="M57 77.8001L63.93 70.8701" stroke="white" stroke-width="2" stroke-linecap="round" stroke-linejoin="round"/>
<path d="M52.8 56.8H61.2" stroke="white" stroke-width="2" stroke-linecap="round" stroke-linejoin="round"/>
<defs>
<clipPath id="clip0_102_15">
<rect width="300" height="150" fill="white"/>
</clipPath>
</defs>
</svg>
